<svg width="105" height="41" viewBox="0 0 105 41" fill="none" xmlns="http://www.w3.org/2000/svg">
<g clip-path="url(#clip0_1_49)">
<path d="M0.162 23.588C0.162 25.84 0.082 28.26 0 29.572H5.286L5.534 26.784H5.614C7.008 29.16 9.304 30.028 11.64 30.028C16.23 30.028 20.78 26.414 20.78 19.2C20.822 13.05 17.338 9.07596 12.54 9.07596C9.754 9.07596 7.662 10.184 6.474 11.904H6.394V0.425964H0.162V23.586V23.588ZM6.394 18.094C6.39214 17.7073 6.43306 17.3216 6.516 16.944C6.926 15.142 8.484 13.872 10.166 13.872C13.074 13.872 14.468 16.33 14.468 19.444C14.468 23.052 12.828 25.104 10.166 25.104C8.362 25.104 6.926 23.792 6.516 22.152C6.43071 21.7889 6.38974 21.4169 6.394 21.044V18.094ZM21.698 29.572H27.928V0.425964H21.698V29.572ZM36.22 29.572V9.52796H29.992V29.572H36.22ZM33.148 0.837964C31.138 0.837964 29.828 2.18796 29.828 3.95196C29.828 5.67196 31.098 7.06596 33.064 7.06596C35.156 7.06596 36.426 5.67196 36.426 3.95196C36.386 2.18796 35.156 0.837964 33.146 0.837964H33.148ZM38.242 29.572H44.474V18.012C44.4498 17.4853 44.5189 16.9586 44.678 16.456C45.128 15.308 46.154 14.118 47.876 14.118C50.13 14.118 51.032 15.88 51.032 18.462V29.572H57.262V17.724C57.262 11.822 54.188 9.07596 50.088 9.07596C46.728 9.07596 44.72 11.002 43.898 12.314H43.778L43.49 9.52796H38.08C38.16 11.33 38.242 13.422 38.242 15.92V29.572ZM78.262 15.512C78.262 12.52 78.346 10.838 78.428 9.52796H73.016L72.81 11.948H72.73C71.706 10.268 69.982 9.07596 67.238 9.07596C62.278 9.07596 58.138 13.176 58.138 19.65C58.138 25.39 61.664 29.406 66.622 29.406C68.916 29.406 70.846 28.466 72.034 26.826H72.114V28.096C72.114 31.832 69.86 33.392 66.91 33.392C64.8727 33.3805 62.8709 32.8579 61.088 31.872L59.86 36.63C61.662 37.612 64.408 38.146 67.074 38.146C70.024 38.146 73.016 37.57 75.19 35.686C77.484 33.676 78.262 30.522 78.262 26.66V15.512ZM72.034 20.636C72.049 21.2031 71.9795 21.7693 71.828 22.316C71.6281 23.0406 71.194 23.6788 70.5935 24.131C69.993 24.5832 69.2597 24.8241 68.508 24.816C65.926 24.816 64.45 22.478 64.45 19.486C64.45 15.84 66.254 13.79 68.55 13.79C70.27 13.79 71.462 14.896 71.912 16.536C71.9925 16.9127 72.0333 17.2968 72.034 17.682V20.636Z" fill="#0BD692"/>
<path d="M104.39 3.09197C102.303 5.14797 100.115 8.05997 97.826 11.828C95.5514 15.5632 93.5849 19.4775 91.946 23.532C91.095 25.6238 90.3795 27.7682 89.804 29.952C88.88 29.8466 87.7226 29.7466 86.332 29.652C85.0776 29.5663 83.8191 29.5603 82.564 29.634C82.2386 25.55 82.6 20.7946 83.648 15.368C84.2533 12.24 84.9466 9.71331 85.728 7.78797C86.224 6.55997 86.724 5.66797 87.224 5.09597C84.986 4.56797 83.378 4.21797 82.384 4.05597C82.384 3.50997 82.658 2.57997 83.198 1.25197C83.357 0.847225 83.5497 0.456524 83.774 0.0839722C83.812 -0.0100278 83.91 -0.0240278 84.068 0.0379722C84.092 0.0459722 84.216 0.107972 84.422 0.209972C84.638 0.313972 84.792 0.385972 84.902 0.429972C86.882 1.23264 90.058 1.90064 94.43 2.43397C98.6566 2.94064 101.935 3.08997 104.264 2.88197C104.304 2.89957 104.338 2.92917 104.361 2.96675C104.384 3.00433 104.395 3.04805 104.392 3.09197H104.39ZM89.22 38.462C88.86 39.348 87.548 39.858 85.296 40.004C83.3667 40.1141 81.4314 39.9648 79.542 39.56C78.8643 39.4247 78.2003 39.2286 77.558 38.974C76.078 38.3766 75.02 37.5153 74.384 36.39C73.752 35.2673 73.6393 34.2046 74.046 33.202C74.514 32.046 75.972 31.502 78.418 31.602C80.3874 31.679 82.3293 32.0916 84.16 32.822C86.076 33.602 87.498 34.5573 88.426 35.688C89.282 36.716 89.55 37.648 89.22 38.462Z" fill="#0BD692"/>
</g>
<defs>
<clipPath id="clip0_1_49">
<rect width="104.391" height="40.0414" fill="white"/>
</clipPath>
</defs>
</svg>
