<svg width="66" height="40" viewBox="0 0 66 40" fill="none" xmlns="http://www.w3.org/2000/svg">
<g clip-path="url(#clip0_1_30)">
<mask id="mask0_1_30" style="mask-type:luminance" maskUnits="userSpaceOnUse" x="0" y="0" width="66" height="40">
<path d="M65.1958 0H0V39.9957H65.1958V0Z" fill="white"/>
</mask>
<g mask="url(#mask0_1_30)">
<path d="M7.66383 12.7872V20.4127C7.66383 21.0106 7.66383 21.534 7.7383 22.0947C7.8883 23.2532 8.33617 23.9638 9.45745 23.9638C10.2798 23.9638 10.9149 23.7393 11.5883 23.4032L13.233 27.3287C11.9617 28.0766 10.0926 28.4872 8.56064 28.4872C5.49574 28.4872 3.43936 26.8053 2.72872 24.2627C2.42979 23.2904 2.35532 22.1319 2.35532 20.9734V12.7872H0V8.37658H2.35532L3.17766 4.04041H7.66383V8.37658H12.6734V12.7872H7.66383Z" fill="#0C29D0"/>
<path d="M16.5957 28.0394V8.37659H21.9042V28.0394H16.5957Z" fill="#0C29D0"/>
<path d="M30.4255 8.37661L30.8372 11.0681C32.4075 8.86278 34.7628 7.92767 36.9309 7.92767C39.0989 7.92767 40.9309 8.93725 42.1649 10.5075C43.6979 12.4883 43.9224 15.0309 43.9224 17.8341V28.0394H38.6138V18.0958C38.6138 16.6383 38.5766 14.9926 38.016 13.8713C37.5298 12.899 36.5585 12.4883 35.3989 12.4883C33.8287 12.4883 32.1096 13.3851 31.1372 14.9926V28.0394H25.8287V8.37661H30.4266H30.4255Z" fill="#0C29D0"/>
<path d="M51.3638 8.37659L55.3266 20.0777H55.4011L59.4383 8.37659H65.1947L54.1298 37.0489L49.3819 35.217L52.5223 26.8808L45.5692 8.37659H51.3638Z" fill="#0C29D0"/>
<path d="M21.901 8.37659H16.6V28.0394H21.901V8.37659Z" fill="#0C29D0"/>
<path d="M21.901 0H16.6V4.5234H21.901V0Z" fill="#0C29D0"/>
<path d="M17.3159 32.2841V34.7904C17.6 34.3798 18.0989 34.1649 18.5734 34.1649C19.7117 34.1649 20.55 35.083 20.55 36.2447C20.55 37.2894 19.767 38.3096 18.5563 38.3096C18.0904 38.3096 17.6308 38.1117 17.3149 37.7883V38.216H16.5957V32.2841H17.3159ZM17.3159 37.0447C17.5851 37.4319 18.0521 37.6458 18.4627 37.6458C19.3808 37.6458 19.8149 36.9096 19.8149 36.2298C19.8149 35.4936 19.301 34.8298 18.4776 34.8298C18.05 34.8298 17.5127 35.0915 17.3149 35.5809V37.0436L17.3159 37.0447Z" fill="#0C29D0"/>
<path d="M21.7298 34.2617L22.7585 37.2585H22.7744L23.8266 34.2617H24.6095L22.3872 39.9958L21.7542 39.75L22.3798 38.0968L20.9319 34.2617H21.7308H21.7298Z" fill="#0C29D0"/>
<path d="M33.7659 31.2894H32.4585V38.2032H33.7659V31.2894Z" fill="#0C29D0"/>
<path d="M29.1777 33.3542C27.8074 33.3542 26.6979 34.4649 26.6979 35.834C26.6979 37.2032 27.8085 38.3138 29.1777 38.3138C30.5468 38.3138 31.6574 37.2032 31.6574 35.834C31.6574 34.4649 30.5479 33.3542 29.1777 33.3542ZM29.1777 37.0521C28.5053 37.0521 27.9606 36.5074 27.9606 35.8351C27.9606 35.1628 28.5053 34.6181 29.1777 34.6181C29.85 34.6181 30.3947 35.1628 30.3947 35.8351C30.3947 36.5074 29.85 37.0521 29.1777 37.0521Z" fill="#0C29D0"/>
<path d="M38.8819 35.2628C38.4766 35.0968 38.1181 34.9404 38.1181 34.6362C38.1181 34.4053 38.3394 34.2681 38.5883 34.2681C38.9564 34.2681 39.2979 34.4532 39.5457 34.6734L40.0872 33.6979C39.5404 33.3692 39.233 33.2447 38.5883 33.2447C37.7053 33.2447 36.8574 33.7426 36.8574 34.7287C36.8574 35.5766 37.4926 35.9085 38.0723 36.1575C38.5511 36.3692 38.9926 36.517 38.9926 36.8585C38.9926 37.1532 38.6426 37.283 38.3755 37.283C37.9053 37.283 37.6021 37.0713 37.234 36.7117L36.7128 37.6372C37.2596 38.0745 37.6851 38.316 38.4404 38.316C39.3798 38.316 40.3 37.8266 40.3 36.7585C40.2989 35.8351 39.5064 35.5223 38.8809 35.2649L38.8819 35.2628Z" fill="#0C29D0"/>
<path d="M36.0361 33.3542H34.7287V38.2032H36.0361V33.3542Z" fill="#0C29D0"/>
<path d="M43.516 37.0596C43.35 37.1426 43.1936 37.1979 42.9915 37.1979C42.7149 37.1979 42.6053 37.0224 42.5681 36.7372C42.55 36.5989 42.55 36.4702 42.55 36.3224V34.4415H43.7841V33.3532H42.55V32.2841H41.4447L41.2426 33.3532H40.6628V34.4415H41.2426V36.4607C41.2426 36.7468 41.2607 37.0319 41.3351 37.2713C41.5107 37.8979 42.016 38.3128 42.7713 38.3128C43.1489 38.3128 43.6085 38.2117 43.9224 38.0266L43.517 37.0596H43.516Z" fill="#0C29D0"/>
<path d="M36.0361 31.2883H34.7287V32.4032H36.0361V31.2883Z" fill="#0C29D0"/>
</g>
</g>
<defs>
<clipPath id="clip0_1_30">
<rect width="65.2128" height="40" fill="white"/>
</clipPath>
</defs>
</svg>
