<svg width="76" height="39" viewBox="0 0 76 39" fill="none" xmlns="http://www.w3.org/2000/svg">
<path d="M49.3855 34.3672C49.8923 34.3672 50.2572 34.4905 50.4794 34.7358C50.7031 34.9817 50.8153 35.3897 50.8153 35.9604V38.2879C50.8153 38.4944 50.712 38.597 50.5061 38.597C50.2995 38.597 50.197 38.4944 50.197 38.2879V35.9604C50.197 35.6119 50.1331 35.3622 50.0068 35.2114C49.8819 35.0613 49.6746 34.9855 49.3855 34.9855H49.0348C48.6914 34.9855 48.4462 35.0613 48.2976 35.2114C48.149 35.3622 48.0747 35.6119 48.0747 35.9604V38.2879C48.0747 38.4944 47.9714 38.597 47.7655 38.597C47.5612 38.597 47.4594 38.4944 47.4594 38.2879V35.9604C47.4594 35.6119 47.3954 35.3622 47.2691 35.2114C47.1443 35.0613 46.9362 34.9855 46.6449 34.9855H46.2942C45.9508 34.9855 45.7056 35.0613 45.557 35.2114C45.4084 35.3622 45.334 35.6119 45.334 35.9604V38.2879C45.334 38.4944 45.2315 38.597 45.0279 38.597C44.8213 38.597 44.7188 38.4944 44.7188 38.2879V34.6763C44.7188 34.4705 44.8213 34.3672 45.0279 34.3672C45.2315 34.3672 45.334 34.4705 45.334 34.6763V34.923C45.4767 34.7313 45.6358 34.5901 45.8126 34.5009C45.991 34.4118 46.2087 34.3672 46.4666 34.3672H46.6449C46.9815 34.3672 47.2468 34.4177 47.4415 34.5188C47.6355 34.6184 47.7863 34.7818 47.8933 35.0092C48.0316 34.7818 48.1876 34.6184 48.36 34.5188C48.5339 34.4177 48.7591 34.3672 49.0348 34.3672H49.3855Z" fill="white"/>
<path d="M52.9386 36.7285V36.9782C52.9386 37.2339 52.9691 37.433 53.0307 37.5757C53.0939 37.7184 53.1972 37.8217 53.3399 37.8848C53.4825 37.9487 53.6854 37.9799 53.9492 37.9799H54.6507C54.9695 37.9799 55.2036 37.9465 55.3522 37.8789C55.5008 37.8098 55.5945 37.6886 55.6346 37.5162C55.6562 37.4196 55.6911 37.3468 55.7386 37.2992C55.7877 37.2502 55.8613 37.2249 55.9586 37.2249C56.0612 37.2249 56.1399 37.2532 56.1934 37.3082C56.2484 37.3617 56.2677 37.4404 56.2499 37.543C56.1942 37.9019 56.0344 38.1672 55.7713 38.3396C55.5098 38.5105 55.136 38.5952 54.6507 38.5952H53.9492C53.3941 38.5952 52.9839 38.4644 52.7186 38.2029C52.4526 37.9398 52.3203 37.5311 52.3203 36.9782V35.9914C52.3203 35.4325 52.4526 35.0209 52.7186 34.7548C52.9839 34.4895 53.3941 34.3595 53.9492 34.3654H54.6507C55.2095 34.3654 55.6197 34.4977 55.8813 34.7608C56.1444 35.0223 56.2767 35.4325 56.2767 35.9914V36.4194C56.2767 36.5167 56.2484 36.5933 56.1934 36.6483C56.1399 36.7018 56.0641 36.7285 55.9675 36.7285H52.9386ZM52.9386 36.1132H55.6614V35.9914C55.6614 35.7298 55.6294 35.5277 55.5662 35.385C55.5023 35.2423 55.3998 35.1405 55.2571 35.0788C55.1144 35.0157 54.9123 34.9837 54.6507 34.9837H53.9492C53.6854 34.9778 53.4825 35.0067 53.3399 35.0699C53.1972 35.1316 53.0939 35.2356 53.0307 35.382C52.9691 35.5269 52.9386 35.7298 52.9386 35.9914V36.1132Z" fill="white"/>
<path d="M59.6248 37.9801C59.8307 37.9801 59.934 38.0827 59.934 38.2863C59.934 38.3836 59.9057 38.4602 59.8507 38.5152C59.7972 38.5687 59.7214 38.5954 59.6248 38.5954C59.0779 38.5954 58.6744 38.4676 58.415 38.212C58.1549 37.9548 58.0256 37.5513 58.0256 37.0022V34.9839H57.5709C57.4735 34.9839 57.397 34.9571 57.342 34.9036C57.2885 34.8486 57.2617 34.7721 57.2617 34.6747C57.2617 34.5781 57.2885 34.5023 57.342 34.4488C57.397 34.3938 57.4735 34.3656 57.5709 34.3656H58.0256V33.6314C58.0256 33.4256 58.1274 33.3223 58.3318 33.3223C58.5376 33.3223 58.6409 33.4256 58.6409 33.6314V34.3656H59.6605C59.7571 34.3656 59.8329 34.3938 59.8864 34.4488C59.9399 34.5023 59.9667 34.5781 59.9667 34.6747C59.9667 34.7721 59.9399 34.8486 59.8864 34.9036C59.8329 34.9571 59.7571 34.9839 59.6605 34.9839H58.6409V37.0022C58.6409 37.26 58.6707 37.4592 58.7301 37.5996C58.791 37.7386 58.8914 37.8367 59.0303 37.8939C59.1708 37.9519 59.3692 37.9801 59.6248 37.9801Z" fill="white"/>
<path d="M63.5043 34.3672C63.6009 34.3672 63.6767 34.3954 63.7302 34.4504C63.7852 34.5039 63.8134 34.5797 63.8134 34.6763C63.8134 34.7737 63.7852 34.8502 63.7302 34.9052C63.6767 34.9587 63.6009 34.9855 63.5043 34.9855C62.9908 34.9855 62.5985 35.0917 62.3272 35.3035C62.0552 35.5138 61.92 35.8044 61.92 36.1744V38.2879C61.92 38.3852 61.8932 38.4617 61.8397 38.5167C61.7862 38.5702 61.7104 38.597 61.6138 38.597C61.5165 38.597 61.4399 38.5702 61.3849 38.5167C61.3314 38.4617 61.3047 38.3852 61.3047 38.2879V34.6763C61.3047 34.5797 61.3314 34.5039 61.3849 34.4504C61.4399 34.3954 61.5165 34.3672 61.6138 34.3672C61.7104 34.3672 61.7862 34.3954 61.8397 34.4504C61.8932 34.5039 61.92 34.5797 61.92 34.6763V35.1311C62.0864 34.8799 62.3034 34.6897 62.571 34.5604C62.84 34.4318 63.1513 34.3672 63.5043 34.3672Z" fill="white"/>
<path d="M65.1573 38.5939C65.06 38.5939 64.9834 38.5672 64.9284 38.5136C64.8749 38.4587 64.8482 38.3821 64.8482 38.2848V34.6732C64.8482 34.5766 64.8749 34.5008 64.9284 34.4473C64.9834 34.3923 65.06 34.3641 65.1573 34.3641C65.2539 34.3641 65.3297 34.3923 65.3832 34.4473C65.4367 34.5008 65.4635 34.5766 65.4635 34.6732V38.2848C65.4635 38.3821 65.4367 38.4587 65.3832 38.5136C65.3297 38.5672 65.2539 38.5939 65.1573 38.5939ZM65.0444 33.6358C64.9255 33.6358 64.8341 33.6031 64.7709 33.5378C64.707 33.4724 64.6758 33.3832 64.6758 33.2702V33.0295C64.6758 32.7961 64.7984 32.6787 65.0444 32.6787H65.2673C65.3817 32.6787 65.4694 32.7084 65.5289 32.7679C65.5883 32.8273 65.6181 32.915 65.6181 33.0295V33.2702C65.6181 33.3832 65.5861 33.4724 65.5229 33.5378C65.4613 33.6031 65.3758 33.6358 65.2673 33.6358H65.0444Z" fill="white"/>
<path d="M68.6875 38.5952C68.1324 38.5952 67.7222 38.463 67.4569 38.1969C67.1909 37.9316 67.0586 37.5222 67.0586 36.9693V35.9854C67.0586 35.4251 67.1909 35.0134 67.4569 34.7518C67.7222 34.4888 68.1324 34.3595 68.6875 34.3654H69.389C69.8111 34.3654 70.1395 34.4368 70.3759 34.5794C70.6137 34.7221 70.7608 34.9421 70.8188 35.2393C70.8344 35.3426 70.8136 35.4229 70.7563 35.4801C70.7006 35.5358 70.6181 35.5633 70.5096 35.5633C70.4242 35.5633 70.3588 35.541 70.3134 35.495C70.2674 35.4496 70.2272 35.3783 70.1916 35.2809C70.1514 35.1739 70.0704 35.0981 69.9478 35.0521C69.8245 35.0067 69.6387 34.9837 69.389 34.9837H68.6875C68.4237 34.9778 68.2208 35.0067 68.0781 35.0699C67.9355 35.1316 67.8322 35.2334 67.769 35.3761C67.7073 35.5187 67.6769 35.7224 67.6769 35.9854V36.9693C67.6769 37.2309 67.7073 37.433 67.769 37.5757C67.8322 37.7184 67.9355 37.8217 68.0781 37.8848C68.2208 37.9487 68.4237 37.9799 68.6875 37.9799H69.389C69.6387 37.9799 69.8245 37.9576 69.9478 37.9116C70.0704 37.8662 70.1514 37.789 70.1916 37.6797C70.2272 37.5831 70.2674 37.5118 70.3134 37.4657C70.3588 37.4204 70.4271 37.3973 70.5185 37.3973C70.6211 37.3973 70.7006 37.4263 70.7563 37.4835C70.8136 37.5393 70.8344 37.6188 70.8188 37.7213C70.7608 38.0186 70.6137 38.2385 70.3759 38.3812C70.1395 38.5239 69.8111 38.5952 69.389 38.5952H68.6875Z" fill="white"/>
<path d="M73.2056 38.597C72.8467 38.597 72.5673 38.5219 72.3674 38.3711C72.1667 38.2188 72.0412 37.9921 71.9899 37.6904C71.9735 37.5878 71.9936 37.5076 72.0493 37.4496C72.1066 37.3924 72.1868 37.3634 72.2901 37.3634C72.3867 37.3634 72.4581 37.3887 72.5041 37.4377C72.5495 37.4853 72.5874 37.5611 72.6171 37.6636C72.6446 37.7848 72.7018 37.868 72.7895 37.9133C72.8787 37.9594 73.0169 37.9817 73.2056 37.9817H74.6116C74.8509 37.9817 75.0136 37.9401 75.0991 37.8569C75.1838 37.7736 75.2269 37.6094 75.2269 37.3634C75.2269 37.1182 75.1838 36.9547 75.0991 36.873C75.0136 36.7897 74.8509 36.7481 74.6116 36.7481H73.2324C72.4395 36.7481 72.0434 36.352 72.0434 35.5591C72.0434 35.1534 72.1415 34.8532 72.3377 34.6585C72.5338 34.4645 72.8318 34.3672 73.2324 34.3672H74.567C75.2284 34.3672 75.6111 34.6496 75.7144 35.2143C75.7322 35.3176 75.7122 35.3979 75.6549 35.4551C75.597 35.5131 75.5167 35.5413 75.4142 35.5413C75.3228 35.5413 75.2522 35.519 75.2031 35.4729C75.1556 35.4276 75.1177 35.3533 75.0902 35.25C75.0619 35.1475 75.0077 35.0776 74.9267 35.0419C74.8472 35.0048 74.7275 34.9855 74.567 34.9855H73.2324C73.0042 34.9855 72.8519 35.0234 72.7746 35.0984C72.6973 35.172 72.6587 35.3258 72.6587 35.5591C72.6587 35.7813 72.6973 35.9329 72.7746 36.0139C72.8519 36.0934 73.0042 36.1328 73.2324 36.1328H74.6116C75.0277 36.1328 75.3369 36.2339 75.539 36.436C75.7411 36.6381 75.8422 36.9473 75.8422 37.3634C75.8422 37.7818 75.7411 38.0917 75.539 38.2938C75.3369 38.4959 75.0277 38.597 74.6116 38.597H73.2056Z" fill="white"/>
<path d="M8.9831 28.98C7.20961 28.98 5.50038 28.7744 3.85541 28.3631C2.23614 27.9262 0.951 27.3864 0 26.7439L2.00481 22.4258C2.95581 23.017 4.07388 23.5053 5.35901 23.8909C6.66985 24.2507 7.95499 24.4306 9.21442 24.4306C10.6024 24.4306 11.5791 24.2636 12.1445 23.9294C12.7357 23.5953 13.0313 23.1326 13.0313 22.5415C13.0313 22.0531 12.7999 21.6933 12.3373 21.462C11.9004 21.2049 11.3092 21.0122 10.5638 20.8836C9.81844 20.7551 8.99595 20.6266 8.09635 20.4981C7.22246 20.3696 6.33572 20.2025 5.43612 19.9969C4.53653 19.7656 3.71404 19.4314 2.96866 18.9945C2.22328 18.5576 1.61927 17.9664 1.15662 17.221C0.719676 16.4756 0.501203 15.5118 0.501203 14.3295C0.501203 13.0186 0.873892 11.862 1.61927 10.8596C2.39035 9.85719 3.49557 9.07325 4.93492 8.50779C6.37427 7.91663 8.09635 7.62105 10.1012 7.62105C11.5148 7.62105 12.9542 7.77527 14.4192 8.0837C15.8843 8.39213 17.1052 8.84193 18.0819 9.43309L16.077 13.7126C15.0746 13.1214 14.0594 12.723 13.0313 12.5174C12.0289 12.2861 11.0522 12.1704 10.1012 12.1704C8.76462 12.1704 7.78792 12.3503 7.17106 12.7102C6.55419 13.07 6.24576 13.5327 6.24576 14.0981C6.24576 14.6122 6.46423 14.9977 6.90118 15.2548C7.36383 15.5118 7.96784 15.7174 8.71322 15.8716C9.4586 16.0258 10.2682 16.1672 11.1421 16.2957C12.0417 16.3985 12.9413 16.5656 13.8409 16.7969C14.7405 17.0282 15.5501 17.3624 16.2698 17.7993C17.0152 18.2106 17.6192 18.7889 18.0819 19.5343C18.5445 20.2539 18.7758 21.2049 18.7758 22.3873C18.7758 23.6724 18.3903 24.8162 17.6192 25.8186C16.8481 26.7953 15.7301 27.5664 14.265 28.1318C12.8257 28.6973 11.065 28.98 8.9831 28.98Z" fill="white"/>
<path d="M30.8143 28.98C28.6039 28.98 26.6376 28.5174 24.9156 27.5921C23.2192 26.6668 21.8698 25.4073 20.8674 23.8138C19.8907 22.1945 19.4023 20.3567 19.4023 18.3005C19.4023 16.2186 19.8907 14.3809 20.8674 12.7873C21.8698 11.168 23.2192 9.90859 24.9156 9.009C26.6376 8.0837 28.6039 7.62105 30.8143 7.62105C32.9991 7.62105 34.9525 8.0837 36.6746 9.009C38.3966 9.90859 39.746 11.1552 40.7227 12.7487C41.6994 14.3423 42.1878 16.1929 42.1878 18.3005C42.1878 20.3567 41.6994 22.1945 40.7227 23.8138C39.746 25.4073 38.3966 26.6668 36.6746 27.5921C34.9525 28.5174 32.9991 28.98 30.8143 28.98ZM30.8143 24.0451C31.8167 24.0451 32.7163 23.8138 33.5131 23.3511C34.3099 22.8885 34.9396 22.233 35.4023 21.3848C35.8649 20.511 36.0962 19.4829 36.0962 18.3005C36.0962 17.0925 35.8649 16.0644 35.4023 15.2162C34.9396 14.368 34.3099 13.7126 33.5131 13.2499C32.7163 12.7873 31.8167 12.556 30.8143 12.556C29.8119 12.556 28.9123 12.7873 28.1156 13.2499C27.3188 13.7126 26.6762 14.368 26.1878 15.2162C25.7252 16.0644 25.4939 17.0925 25.4939 18.3005C25.4939 19.4829 25.7252 20.511 26.1878 21.3848C26.6762 22.233 27.3188 22.8885 28.1156 23.3511C28.9123 23.8138 29.8119 24.0451 30.8143 24.0451Z" fill="white"/>
<path d="M44.6658 28.6716V0.0644531H50.6802V28.6716H44.6658Z" fill="white"/>
<path d="M63.6259 28.98C61.6725 28.98 59.9119 28.5431 58.344 27.6692C56.7762 26.7696 55.5296 25.523 54.6043 23.9294C53.7047 22.3358 53.2549 20.4596 53.2549 18.3005C53.2549 16.1158 53.7047 14.2266 54.6043 12.6331C55.5296 11.0395 56.7762 9.80578 58.344 8.93189C59.9119 8.058 61.6725 7.62105 63.6259 7.62105C65.3737 7.62105 66.903 8.00659 68.2139 8.77767C69.5247 9.54875 70.54 10.7182 71.2597 12.2861C71.9793 13.854 72.3392 15.8588 72.3392 18.3005C72.3392 20.7166 71.9922 22.7214 71.2982 24.315C70.6042 25.8828 69.6018 27.0523 68.291 27.8234C67.0059 28.5945 65.4508 28.98 63.6259 28.98ZM64.6669 24.0451C65.6436 24.0451 66.5304 23.8138 67.3271 23.3511C68.1239 22.8885 68.7536 22.233 69.2163 21.3848C69.7046 20.511 69.9488 19.4829 69.9488 18.3005C69.9488 17.0925 69.7046 16.0644 69.2163 15.2162C68.7536 14.368 68.1239 13.7126 67.3271 13.2499C66.5304 12.7873 65.6436 12.556 64.6669 12.556C63.6645 12.556 62.7649 12.7873 61.9681 13.2499C61.1713 13.7126 60.5288 14.368 60.0404 15.2162C59.5778 16.0644 59.3464 17.0925 59.3464 18.3005C59.3464 19.4829 59.5778 20.511 60.0404 21.3848C60.5288 22.233 61.1713 22.8885 61.9681 23.3511C62.7649 23.8138 63.6645 24.0451 64.6669 24.0451ZM70.103 28.6716V24.4306L70.2187 18.262L69.8332 12.1319V0.0644531H75.8476V28.6716H70.103Z" fill="white"/>
<path fill-rule="evenodd" clip-rule="evenodd" d="M18.0819 9.43313C17.1052 8.84197 15.8843 8.39217 14.4192 8.08374L16.077 13.7126L18.0819 9.43313Z" fill="#FB91BC"/>
<path fill-rule="evenodd" clip-rule="evenodd" d="M3.85541 28.3632C5.50038 28.7744 7.20961 28.98 8.9831 28.98C11.065 28.98 12.8257 28.6973 14.265 28.1319C15.7301 27.5664 16.8481 26.7953 17.6192 25.8186C18.3903 24.8162 18.7758 23.6724 18.7758 22.3873C18.7758 21.205 18.5445 20.254 18.0819 19.5343C17.6192 18.7889 17.0152 18.2106 16.2698 17.7994C15.7885 17.5071 15.2669 17.2609 14.7052 17.0606L12.3373 21.462C12.7999 21.6933 13.0313 22.0532 13.0313 22.5415C13.0313 23.1327 12.7357 23.5953 12.1445 23.9295C11.5791 24.2636 10.6024 24.4307 9.21442 24.4307C7.95499 24.4307 6.66985 24.2507 5.35901 23.8909C4.07388 23.5054 2.95581 23.017 2.00481 22.4259L0 26.7439C0.951 27.3865 2.23614 27.9262 3.85541 28.3632Z" fill="#FB91BC"/>
</svg>
