<svg width="76" height="39" viewBox="0 0 76 39" fill="none" xmlns="http://www.w3.org/2000/svg">
<path d="M49.3855 34.3027C49.8923 34.3027 50.2572 34.4261 50.4794 34.6713C50.7031 34.9173 50.8153 35.3253 50.8153 35.896V38.2234C50.8153 38.43 50.712 38.5325 50.5061 38.5325C50.2995 38.5325 50.197 38.43 50.197 38.2234V35.896C50.197 35.5475 50.1331 35.2978 50.0068 35.1469C49.8819 34.9968 49.6746 34.921 49.3855 34.921H49.0348C48.6914 34.921 48.4462 34.9968 48.2976 35.1469C48.149 35.2978 48.0747 35.5475 48.0747 35.896V38.2234C48.0747 38.43 47.9714 38.5325 47.7655 38.5325C47.5612 38.5325 47.4594 38.43 47.4594 38.2234V35.896C47.4594 35.5475 47.3954 35.2978 47.2691 35.1469C47.1443 34.9968 46.9362 34.921 46.6449 34.921H46.2942C45.9508 34.921 45.7056 34.9968 45.557 35.1469C45.4084 35.2978 45.334 35.5475 45.334 35.896V38.2234C45.334 38.43 45.2315 38.5325 45.0279 38.5325C44.8213 38.5325 44.7188 38.43 44.7188 38.2234V34.6119C44.7188 34.406 44.8213 34.3027 45.0279 34.3027C45.2315 34.3027 45.334 34.406 45.334 34.6119V34.8586C45.4767 34.6669 45.6358 34.5257 45.8126 34.4365C45.991 34.3473 46.2087 34.3027 46.4666 34.3027H46.6449C46.9815 34.3027 47.2468 34.3533 47.4415 34.4543C47.6355 34.5539 47.7863 34.7174 47.8933 34.9448C48.0316 34.7174 48.1876 34.5539 48.36 34.4543C48.5339 34.3533 48.7591 34.3027 49.0348 34.3027H49.3855Z" fill="#0E29D0"/>
<path d="M52.9386 36.6641V36.9138C52.9386 37.1694 52.9691 37.3686 53.0307 37.5112C53.0939 37.6539 53.1972 37.7572 53.3399 37.8204C53.4825 37.8843 53.6854 37.9155 53.9492 37.9155H54.6507C54.9695 37.9155 55.2036 37.882 55.3522 37.8144C55.5008 37.7453 55.5945 37.6242 55.6346 37.4518C55.6562 37.3552 55.6911 37.2824 55.7386 37.2348C55.7877 37.1857 55.8613 37.1605 55.9586 37.1605C56.0612 37.1605 56.1399 37.1887 56.1934 37.2437C56.2484 37.2972 56.2677 37.376 56.2499 37.4785C56.1942 37.8375 56.0344 38.1028 55.7713 38.2752C55.5098 38.4461 55.136 38.5308 54.6507 38.5308H53.9492C53.3941 38.5308 52.9839 38.4 52.7186 38.1384C52.4526 37.8754 52.3203 37.4666 52.3203 36.9138V35.9269C52.3203 35.3681 52.4526 34.9564 52.7186 34.6904C52.9839 34.4251 53.3941 34.295 53.9492 34.301H54.6507C55.2095 34.301 55.6197 34.4333 55.8813 34.6963C56.1444 34.9579 56.2767 35.3681 56.2767 35.9269V36.3549C56.2767 36.4523 56.2484 36.5288 56.1934 36.5838C56.1399 36.6373 56.0641 36.6641 55.9675 36.6641H52.9386ZM52.9386 36.0488H55.6614V35.9269C55.6614 35.6653 55.6294 35.4632 55.5662 35.3205C55.5023 35.1779 55.3998 35.076 55.2571 35.0144C55.1144 34.9512 54.9123 34.9192 54.6507 34.9192H53.9492C53.6854 34.9133 53.4825 34.9423 53.3399 35.0054C53.1972 35.0671 53.0939 35.1712 53.0307 35.3176C52.9691 35.4625 52.9386 35.6653 52.9386 35.9269V36.0488Z" fill="#0E29D0"/>
<path d="M59.6248 37.9157C59.8307 37.9157 59.934 38.0182 59.934 38.2218C59.934 38.3192 59.9057 38.3957 59.8507 38.4507C59.7972 38.5042 59.7214 38.531 59.6248 38.531C59.0779 38.531 58.6744 38.4031 58.415 38.1475C58.1549 37.8904 58.0256 37.4869 58.0256 36.9377V34.9194H57.5709C57.4735 34.9194 57.397 34.8927 57.342 34.8392C57.2885 34.7842 57.2617 34.7076 57.2617 34.6103C57.2617 34.5137 57.2885 34.4379 57.342 34.3844C57.397 34.3294 57.4735 34.3011 57.5709 34.3011H58.0256V33.5669C58.0256 33.3611 58.1274 33.2578 58.3318 33.2578C58.5376 33.2578 58.6409 33.3611 58.6409 33.5669V34.3011H59.6605C59.7571 34.3011 59.8329 34.3294 59.8864 34.3844C59.9399 34.4379 59.9667 34.5137 59.9667 34.6103C59.9667 34.7076 59.9399 34.7842 59.8864 34.8392C59.8329 34.8927 59.7571 34.9194 59.6605 34.9194H58.6409V36.9377C58.6409 37.1956 58.6707 37.3947 58.7301 37.5352C58.791 37.6741 58.8914 37.7722 59.0303 37.8295C59.1708 37.8874 59.3692 37.9157 59.6248 37.9157Z" fill="#0E29D0"/>
<path d="M63.5043 34.3027C63.6009 34.3027 63.6767 34.331 63.7302 34.386C63.7852 34.4395 63.8134 34.5153 63.8134 34.6119C63.8134 34.7092 63.7852 34.7858 63.7302 34.8407C63.6767 34.8943 63.6009 34.921 63.5043 34.921C62.9908 34.921 62.5985 35.0273 62.3272 35.2391C62.0552 35.4494 61.92 35.7399 61.92 36.11V38.2234C61.92 38.3208 61.8932 38.3973 61.8397 38.4523C61.7862 38.5058 61.7104 38.5325 61.6138 38.5325C61.5165 38.5325 61.4399 38.5058 61.3849 38.4523C61.3314 38.3973 61.3047 38.3208 61.3047 38.2234V34.6119C61.3047 34.5153 61.3314 34.4395 61.3849 34.386C61.4399 34.331 61.5165 34.3027 61.6138 34.3027C61.7104 34.3027 61.7862 34.331 61.8397 34.386C61.8932 34.4395 61.92 34.5153 61.92 34.6119V35.0667C62.0864 34.8155 62.3034 34.6252 62.571 34.4959C62.84 34.3674 63.1513 34.3027 63.5043 34.3027Z" fill="#0E29D0"/>
<path d="M65.1573 38.5295C65.06 38.5295 64.9834 38.5027 64.9284 38.4492C64.8749 38.3942 64.8482 38.3177 64.8482 38.2203V34.6088C64.8482 34.5122 64.8749 34.4364 64.9284 34.3829C64.9834 34.3279 65.06 34.2996 65.1573 34.2996C65.2539 34.2996 65.3297 34.3279 65.3832 34.3829C65.4367 34.4364 65.4635 34.5122 65.4635 34.6088V38.2203C65.4635 38.3177 65.4367 38.3942 65.3832 38.4492C65.3297 38.5027 65.2539 38.5295 65.1573 38.5295ZM65.0444 33.5714C64.9255 33.5714 64.8341 33.5387 64.7709 33.4733C64.707 33.4079 64.6758 33.3187 64.6758 33.2058V32.965C64.6758 32.7317 64.7984 32.6143 65.0444 32.6143H65.2673C65.3817 32.6143 65.4694 32.644 65.5289 32.7034C65.5883 32.7629 65.6181 32.8506 65.6181 32.965V33.2058C65.6181 33.3187 65.5861 33.4079 65.5229 33.4733C65.4613 33.5387 65.3758 33.5714 65.2673 33.5714H65.0444Z" fill="#0E29D0"/>
<path d="M68.6875 38.5308C68.1324 38.5308 67.7222 38.3985 67.4569 38.1325C67.1909 37.8672 67.0586 37.4577 67.0586 36.9049V35.921C67.0586 35.3607 67.1909 34.949 67.4569 34.6874C67.7222 34.4243 68.1324 34.295 68.6875 34.301H69.389C69.8111 34.301 70.1395 34.3723 70.3759 34.515C70.6137 34.6577 70.7608 34.8776 70.8188 35.1749C70.8344 35.2782 70.8136 35.3584 70.7563 35.4156C70.7006 35.4714 70.6181 35.4989 70.5096 35.4989C70.4242 35.4989 70.3588 35.4766 70.3134 35.4305C70.2674 35.3852 70.2272 35.3138 70.1916 35.2165C70.1514 35.1095 70.0704 35.0337 69.9478 34.9876C69.8245 34.9423 69.6387 34.9192 69.389 34.9192H68.6875C68.4237 34.9133 68.2208 34.9423 68.0781 35.0054C67.9355 35.0671 67.8322 35.1689 67.769 35.3116C67.7073 35.4543 67.6769 35.6579 67.6769 35.921V36.9049C67.6769 37.1664 67.7073 37.3686 67.769 37.5112C67.8322 37.6539 67.9355 37.7572 68.0781 37.8204C68.2208 37.8843 68.4237 37.9155 68.6875 37.9155H69.389C69.6387 37.9155 69.8245 37.8932 69.9478 37.8471C70.0704 37.8018 70.1514 37.7245 70.1916 37.6153C70.2272 37.5187 70.2674 37.4473 70.3134 37.4013C70.3588 37.3559 70.4271 37.3329 70.5185 37.3329C70.6211 37.3329 70.7006 37.3619 70.7563 37.4191C70.8136 37.4748 70.8344 37.5543 70.8188 37.6569C70.7608 37.9541 70.6137 38.1741 70.3759 38.3168C70.1395 38.4594 69.8111 38.5308 69.389 38.5308H68.6875Z" fill="#0E29D0"/>
<path d="M73.2056 38.5325C72.8467 38.5325 72.5673 38.4575 72.3674 38.3066C72.1667 38.1543 72.0412 37.9276 71.9899 37.6259C71.9735 37.5234 71.9936 37.4431 72.0493 37.3852C72.1066 37.328 72.1868 37.299 72.2901 37.299C72.3867 37.299 72.4581 37.3242 72.5041 37.3733C72.5495 37.4208 72.5874 37.4966 72.6171 37.5992C72.6446 37.7203 72.7018 37.8035 72.7895 37.8489C72.8787 37.895 73.0169 37.9172 73.2056 37.9172H74.6116C74.8509 37.9172 75.0136 37.8756 75.0991 37.7924C75.1838 37.7092 75.2269 37.5449 75.2269 37.299C75.2269 37.0537 75.1838 36.8903 75.0991 36.8085C75.0136 36.7253 74.8509 36.6837 74.6116 36.6837H73.2324C72.4395 36.6837 72.0434 36.2876 72.0434 35.4947C72.0434 35.0889 72.1415 34.7887 72.3377 34.594C72.5338 34.4001 72.8318 34.3027 73.2324 34.3027H74.567C75.2284 34.3027 75.6111 34.5851 75.7144 35.1499C75.7322 35.2532 75.7122 35.3334 75.6549 35.3907C75.597 35.4486 75.5167 35.4769 75.4142 35.4769C75.3228 35.4769 75.2522 35.4546 75.2031 35.4085C75.1556 35.3632 75.1177 35.2888 75.0902 35.1856C75.0619 35.083 75.0077 35.0132 74.9267 34.9775C74.8472 34.9403 74.7275 34.921 74.567 34.921H73.2324C73.0042 34.921 72.8519 34.9589 72.7746 35.034C72.6973 35.1075 72.6587 35.2614 72.6587 35.4947C72.6587 35.7169 72.6973 35.8685 72.7746 35.9495C72.8519 36.029 73.0042 36.0684 73.2324 36.0684H74.6116C75.0277 36.0684 75.3369 36.1694 75.539 36.3716C75.7411 36.5737 75.8422 36.8828 75.8422 37.299C75.8422 37.7173 75.7411 38.0272 75.539 38.2294C75.3369 38.4315 75.0277 38.5325 74.6116 38.5325H73.2056Z" fill="#0E29D0"/>
<path d="M8.9831 28.9155C7.20961 28.9155 5.50038 28.7099 3.85541 28.2987C2.23614 27.8617 0.951 27.322 0 26.6794L2.00481 22.3614C2.95581 22.9525 4.07388 23.4409 5.35901 23.8264C6.66985 24.1863 7.95499 24.3662 9.21442 24.3662C10.6024 24.3662 11.5791 24.1991 12.1445 23.865C12.7357 23.5308 13.0313 23.0682 13.0313 22.477C13.0313 21.9887 12.7999 21.6288 12.3373 21.3975C11.9004 21.1405 11.3092 20.9477 10.5638 20.8192C9.81844 20.6907 8.99595 20.5622 8.09635 20.4337C7.22246 20.3051 6.33572 20.1381 5.43612 19.9325C4.53653 19.7011 3.71404 19.367 2.96866 18.93C2.22328 18.4931 1.61927 17.9019 1.15662 17.1566C0.719676 16.4112 0.501203 15.4473 0.501203 14.265C0.501203 12.9542 0.873892 11.7975 1.61927 10.7951C2.39035 9.79273 3.49557 9.0088 4.93492 8.44334C6.37427 7.85218 8.09635 7.5566 10.1012 7.5566C11.5148 7.5566 12.9542 7.71081 14.4192 8.01925C15.8843 8.32768 17.1052 8.77748 18.0819 9.36864L16.077 13.6481C15.0746 13.057 14.0594 12.6586 13.0313 12.453C12.0289 12.2216 11.0522 12.106 10.1012 12.106C8.76462 12.106 7.78792 12.2859 7.17106 12.6457C6.55419 13.0056 6.24576 13.4682 6.24576 14.0337C6.24576 14.5477 6.46423 14.9333 6.90118 15.1903C7.36383 15.4473 7.96784 15.6529 8.71322 15.8072C9.4586 15.9614 10.2682 16.1027 11.1421 16.2313C12.0417 16.3341 12.9413 16.5011 13.8409 16.7325C14.7405 16.9638 15.5501 17.2979 16.2698 17.7349C17.0152 18.1461 17.6192 18.7244 18.0819 19.4698C18.5445 20.1895 18.7758 21.1405 18.7758 22.3228C18.7758 23.6079 18.3903 24.7517 17.6192 25.7541C16.8481 26.7308 15.7301 27.5019 14.265 28.0674C12.8257 28.6328 11.065 28.9155 8.9831 28.9155Z" fill="#0E29D0"/>
<path d="M30.8143 28.9155C28.6039 28.9155 26.6376 28.4529 24.9156 27.5276C23.2192 26.6023 21.8698 25.3429 20.8674 23.7493C19.8907 22.13 19.4023 20.2923 19.4023 18.2361C19.4023 16.1542 19.8907 14.3164 20.8674 12.7228C21.8698 11.1036 23.2192 9.84414 24.9156 8.94454C26.6376 8.01925 28.6039 7.5566 30.8143 7.5566C32.9991 7.5566 34.9525 8.01925 36.6746 8.94454C38.3966 9.84414 39.746 11.0907 40.7227 12.6843C41.6994 14.2779 42.1878 16.1285 42.1878 18.2361C42.1878 20.2923 41.6994 22.13 40.7227 23.7493C39.746 25.3429 38.3966 26.6023 36.6746 27.5276C34.9525 28.4529 32.9991 28.9155 30.8143 28.9155ZM30.8143 23.9806C31.8167 23.9806 32.7163 23.7493 33.5131 23.2867C34.3099 22.824 34.9396 22.1686 35.4023 21.3204C35.8649 20.4465 36.0962 19.4184 36.0962 18.2361C36.0962 17.028 35.8649 15.9999 35.4023 15.1517C34.9396 14.3036 34.3099 13.6481 33.5131 13.1855C32.7163 12.7228 31.8167 12.4915 30.8143 12.4915C29.8119 12.4915 28.9123 12.7228 28.1156 13.1855C27.3188 13.6481 26.6762 14.3036 26.1878 15.1517C25.7252 15.9999 25.4939 17.028 25.4939 18.2361C25.4939 19.4184 25.7252 20.4465 26.1878 21.3204C26.6762 22.1686 27.3188 22.824 28.1156 23.2867C28.9123 23.7493 29.8119 23.9806 30.8143 23.9806Z" fill="#0E29D0"/>
<path d="M44.6658 28.6071V0H50.6802V28.6071H44.6658Z" fill="#0E29D0"/>
<path d="M63.6259 28.9155C61.6725 28.9155 59.9119 28.4786 58.344 27.6047C56.7762 26.7051 55.5296 25.4585 54.6043 23.865C53.7047 22.2714 53.2549 20.3951 53.2549 18.2361C53.2549 16.0513 53.7047 14.1622 54.6043 12.5686C55.5296 10.9751 56.7762 9.74133 58.344 8.86744C59.9119 7.99354 61.6725 7.5566 63.6259 7.5566C65.3737 7.5566 66.903 7.94214 68.2139 8.71322C69.5247 9.4843 70.54 10.6538 71.2597 12.2216C71.9793 13.7895 72.3392 15.7943 72.3392 18.2361C72.3392 20.6521 71.9922 22.6569 71.2982 24.2505C70.6042 25.8184 69.6018 26.9878 68.291 27.7589C67.0059 28.53 65.4508 28.9155 63.6259 28.9155ZM64.6669 23.9806C65.6436 23.9806 66.5304 23.7493 67.3271 23.2867C68.1239 22.824 68.7536 22.1686 69.2163 21.3204C69.7046 20.4465 69.9488 19.4184 69.9488 18.2361C69.9488 17.028 69.7046 15.9999 69.2163 15.1517C68.7536 14.3036 68.1239 13.6481 67.3271 13.1855C66.5304 12.7228 65.6436 12.4915 64.6669 12.4915C63.6645 12.4915 62.7649 12.7228 61.9681 13.1855C61.1713 13.6481 60.5288 14.3036 60.0404 15.1517C59.5778 15.9999 59.3464 17.028 59.3464 18.2361C59.3464 19.4184 59.5778 20.4465 60.0404 21.3204C60.5288 22.1686 61.1713 22.824 61.9681 23.2867C62.7649 23.7493 63.6645 23.9806 64.6669 23.9806ZM70.103 28.6071V24.3662L70.2187 18.1975L69.8332 12.0674V0H75.8476V28.6071H70.103Z" fill="#0E29D0"/>
<path fill-rule="evenodd" clip-rule="evenodd" d="M18.0819 9.36868C17.1052 8.77752 15.8843 8.32772 14.4192 8.01929L16.077 13.6482L18.0819 9.36868Z" fill="#FB91BC"/>
<path fill-rule="evenodd" clip-rule="evenodd" d="M3.85541 28.2987C5.50038 28.71 7.20961 28.9156 8.9831 28.9156C11.065 28.9156 12.8257 28.6329 14.265 28.0674C15.7301 27.5019 16.8481 26.7309 17.6192 25.7542C18.3903 24.7518 18.7758 23.608 18.7758 22.3228C18.7758 21.1405 18.5445 20.1895 18.0819 19.4698C17.6192 18.7245 17.0152 18.1462 16.2698 17.7349C15.7885 17.4427 15.2669 17.1964 14.7052 16.9962L12.3373 21.3975C12.7999 21.6289 13.0313 21.9887 13.0313 22.4771C13.0313 23.0682 12.7357 23.5309 12.1445 23.865C11.5791 24.1991 10.6024 24.3662 9.21442 24.3662C7.95499 24.3662 6.66985 24.1863 5.35901 23.8265C4.07388 23.4409 2.95581 22.9526 2.00481 22.3614L0 26.6795C0.951 27.322 2.23614 27.8618 3.85541 28.2987Z" fill="#FB91BC"/>
</svg>
