<svg width="18" height="18" viewBox="0 0 18 18" fill="none" xmlns="http://www.w3.org/2000/svg">
<path d="M10.5915 7.41006C11.4698 8.28831 11.4698 9.71406 10.5915 10.5938C9.71327 11.4721 8.28752 11.4721 7.40777 10.5938C6.52952 9.71556 6.52952 8.28981 7.40777 7.41006C8.28752 6.53031 9.71252 6.53031 10.5915 7.41006" stroke="#989AA0" stroke-width="1.125" stroke-linejoin="round"/>
<path fill-rule="evenodd" clip-rule="evenodd" d="M2.25 9C2.25 8.50575 2.364 8.01675 2.5845 7.566V7.566C3.72075 5.24325 6.23175 3.75 9 3.75C11.7682 3.75 14.2793 5.24325 15.4155 7.566V7.566C15.636 8.01675 15.75 8.50575 15.75 9C15.75 9.49425 15.636 9.98325 15.4155 10.434V10.434C14.2793 12.7567 11.7682 14.25 9 14.25C6.23175 14.25 3.72075 12.7567 2.5845 10.434V10.434C2.364 9.98325 2.25 9.49425 2.25 9Z" stroke="#989AA0" stroke-width="1.125" stroke-linejoin="round"/>
</svg>
