<svg width="24" height="25" viewBox="0 0 24 25" fill="none" xmlns="http://www.w3.org/2000/svg">
<g id="Group">
<path id="Path" d="M11.1246 12.674H15.3024" stroke="#0E29D0" stroke-width="1.5" stroke-linecap="round" stroke-linejoin="round"/>
<path id="Path_2" d="M11.1246 16.6657L17.1271 16.6707" stroke="#0E29D0" stroke-width="1.5" stroke-linecap="round" stroke-linejoin="round"/>
<rect id="Rectangle" x="2.99622" y="3.66528" width="18.0075" height="18.0075" rx="2" stroke="#1D1D1D" stroke-width="1.5" stroke-linecap="round" stroke-linejoin="round"/>
<path id="Path_3" d="M11.1246 8.66232H17.1271" stroke="#0E29D0" stroke-width="1.5" stroke-linecap="round" stroke-linejoin="round"/>
<path id="Path_4" d="M7.12195 8.41735C6.98395 8.4179 6.87248 8.53012 6.87285 8.66811C6.87321 8.80611 6.98528 8.91773 7.12328 8.91755C7.26128 8.91737 7.37305 8.80545 7.37305 8.66744C7.37332 8.60086 7.34692 8.53694 7.29974 8.48995C7.25256 8.44296 7.18853 8.41681 7.12195 8.41735" stroke="#1D1D1D" stroke-width="1.5" stroke-linecap="round" stroke-linejoin="round"/>
<path id="Path_5" d="M7.12195 12.4191C6.98395 12.4196 6.87248 12.5318 6.87285 12.6698C6.87321 12.8078 6.98528 12.9194 7.12328 12.9193C7.26128 12.9191 7.37305 12.8072 7.37305 12.6692C7.37332 12.6026 7.34692 12.5386 7.29974 12.4917C7.25256 12.4447 7.18853 12.4185 7.12195 12.4191" stroke="#1D1D1D" stroke-width="1.5" stroke-linecap="round" stroke-linejoin="round"/>
<path id="Path_6" d="M7.12195 16.4205C6.98395 16.4211 6.87248 16.5333 6.87285 16.6713C6.87321 16.8093 6.98528 16.9209 7.12328 16.9207C7.26128 16.9205 7.37305 16.8086 7.37305 16.6706C7.37332 16.604 7.34692 16.5401 7.29974 16.4931C7.25256 16.4461 7.18853 16.42 7.12195 16.4205" stroke="#1D1D1D" stroke-width="1.5" stroke-linecap="round" stroke-linejoin="round"/>
</g>
</svg>
