<svg width="24" height="25" viewBox="0 0 24 25" fill="none" xmlns="http://www.w3.org/2000/svg">
<g id="Group">
<path id="Path" d="M21.0037 12.669C21.0037 17.6417 16.9726 21.6728 12 21.6728C7.02733 21.6728 2.99622 17.6417 2.99622 12.669C2.99622 7.6964 7.02733 3.66528 12 3.66528" stroke="#1D1D1D" stroke-width="1.5" stroke-linecap="round" stroke-linejoin="round"/>
<path id="Path_2" d="M20.0033 4.66577L17.0021 7.66702" stroke="#0E29D0" stroke-width="1.5" stroke-linecap="round" stroke-linejoin="round"/>
<path id="Path_3" d="M16.0016 3.66528L15.0012 4.6657" stroke="#0E29D0" stroke-width="1.5" stroke-linecap="round" stroke-linejoin="round"/>
<path id="Path_4" d="M21.0038 8.66748L20.0034 9.6679" stroke="#0E29D0" stroke-width="1.5" stroke-linecap="round" stroke-linejoin="round"/>
<path id="Path_5" fill-rule="evenodd" clip-rule="evenodd" d="M13.087 8.09395L13.9141 10.7549L16.575 11.582C16.7961 11.6508 16.959 11.839 16.9952 12.0677C17.0315 12.2964 16.9347 12.5258 16.7457 12.6595L14.4706 14.2684L14.5062 17.0547C14.5091 17.2862 14.3804 17.4993 14.1741 17.6044C13.9678 17.7095 13.7198 17.6884 13.5342 17.5499L11.301 15.8834L8.66207 16.7783C8.44282 16.8526 8.2004 16.796 8.03671 16.6323C7.87301 16.4686 7.81643 16.2262 7.89075 16.0069L8.78564 13.368L7.11905 11.1347C6.9806 10.9492 6.95949 10.7011 7.06458 10.4949C7.16968 10.2886 7.38276 10.1599 7.61425 10.1628L10.4006 10.1984L12.0095 7.9233C12.1432 7.73428 12.3726 7.63755 12.6013 7.67377C12.8299 7.70998 13.0182 7.87287 13.087 8.09395Z" stroke="#0E29D0" stroke-width="1.5" stroke-linecap="round" stroke-linejoin="round"/>
</g>
</svg>
