<svg width="16" height="16" viewBox="0 0 16 16" fill="none" xmlns="http://www.w3.org/2000/svg">
<path d="M2.37549 6.22705C2.37549 6.91768 3.77424 7.47705 5.50049 7.47705" stroke="#797979" stroke-width="1.125" stroke-linecap="round" stroke-linejoin="round"/>
<path d="M5.49986 9.97699C3.77424 9.97699 2.37549 9.41761 2.37549 8.72699" stroke="#797979" stroke-width="1.125" stroke-linecap="round" stroke-linejoin="round"/>
<path d="M8.62444 3.72711H8.62507V5.60211" stroke="#797979" stroke-width="1.125" stroke-linecap="round" stroke-linejoin="round"/>
<path d="M7.37549 10.602C7.37549 11.2926 8.77424 11.852 10.5005 11.852C12.2267 11.852 13.6255 11.2926 13.6255 10.602" stroke="#797979" stroke-width="1.125" stroke-linecap="round" stroke-linejoin="round"/>
<path d="M7.37549 8.10205C7.37549 8.79268 8.77424 9.35205 10.5005 9.35205C12.2267 9.35205 13.6255 8.79268 13.6255 8.10205" stroke="#797979" stroke-width="1.125" stroke-linecap="round" stroke-linejoin="round"/>
<path d="M10.5 6.85199C8.77497 6.85199 7.37497 7.41136 7.37622 8.10199" stroke="#797979" stroke-width="1.125" stroke-linecap="round" stroke-linejoin="round"/>
<path d="M7.37549 8.10205V13.1021C7.37549 13.7927 8.77424 14.3521 10.5005 14.3521" stroke="#797979" stroke-width="1.125" stroke-linecap="round" stroke-linejoin="round"/>
<path d="M10.5 6.85199C12.225 6.85199 13.625 7.41136 13.6238 8.10199" stroke="#797979" stroke-width="1.125" stroke-linecap="round" stroke-linejoin="round"/>
<path d="M13.625 8.10205V13.1021C13.625 13.7927 12.2263 14.3521 10.5 14.3521" stroke="#797979" stroke-width="1.125" stroke-linecap="round" stroke-linejoin="round"/>
<path d="M5.5 12.4771C3.77438 12.4771 2.375 11.9177 2.375 11.2271" stroke="#797979" stroke-width="1.125" stroke-linecap="round" stroke-linejoin="round"/>
<path fill-rule="evenodd" clip-rule="evenodd" d="M5.5 4.97705C7.22589 4.97705 8.625 4.41741 8.625 3.72705C8.625 3.03669 7.22589 2.47705 5.5 2.47705C3.77411 2.47705 2.375 3.03669 2.375 3.72705C2.375 4.41741 3.77411 4.97705 5.5 4.97705Z" stroke="#797979" stroke-width="1.125" stroke-linecap="round" stroke-linejoin="round"/>
<path d="M2.375 3.72711V11.2271" stroke="#797979" stroke-width="1.125" stroke-linecap="round" stroke-linejoin="round"/>
</svg>
