<svg width="25" height="25" viewBox="0 0 25 25" fill="none" xmlns="http://www.w3.org/2000/svg">
<path d="M14.622 9.98204C15.793 11.153 15.793 13.054 14.622 14.227C13.451 15.398 11.55 15.398 10.377 14.227C9.20603 13.056 9.20603 11.155 10.377 9.98204C11.55 8.80904 13.45 8.80904 14.622 9.98204" stroke="#606060" stroke-width="1.5" stroke-linecap="round" stroke-linejoin="round"/>
<path fill-rule="evenodd" clip-rule="evenodd" d="M3.5 12.1021C3.5 11.4431 3.652 10.7911 3.946 10.1901V10.1901C5.461 7.09305 8.809 5.10205 12.5 5.10205C16.191 5.10205 19.539 7.09305 21.054 10.1901V10.1901C21.348 10.7911 21.5 11.4431 21.5 12.1021C21.5 12.7611 21.348 13.4131 21.054 14.0141V14.0141C19.539 17.1111 16.191 19.1021 12.5 19.1021C8.809 19.1021 5.461 17.1111 3.946 14.0141V14.0141C3.652 13.4131 3.5 12.7611 3.5 12.1021Z" stroke="#606060" stroke-width="1.5" stroke-linecap="round" stroke-linejoin="round"/>
</svg>
