<svg width="38" height="12" viewBox="0 0 38 12" fill="none" xmlns="http://www.w3.org/2000/svg">
<g id="FULL" clip-path="url(#clip0_504_2056)">
<path id="Vector" fill-rule="evenodd" clip-rule="evenodd" d="M2.88775 0L0.524414 6.85733H4.46441L2.88708 12L9.19108 4.286H5.25108L7.61575 0H2.88775ZM12.7191 9.33333H10.8844L12.4524 2.21867H17.6684L17.3164 3.81867H13.9351L13.7004 4.928H16.9964L16.6444 6.528H13.3377L12.7191 9.33333ZM21.5991 9.46133C19.4124 9.46133 18.3351 8.416 18.3351 6.92267C18.3351 6.80533 18.3671 6.56 18.3884 6.45333L19.3271 2.21867H21.1937L20.2657 6.41067C20.2551 6.464 20.2337 6.58133 20.2337 6.70933C20.2444 7.296 20.6924 7.86133 21.5991 7.86133C22.5804 7.86133 23.0817 7.24267 23.2631 6.41067L24.1911 2.21867H26.0471L25.1191 6.44267C24.7351 8.17067 23.7964 9.46133 21.5991 9.46133ZM31.0871 9.33333H26.3937L27.9617 2.21867H29.7964L28.5911 7.73333H31.4391L31.0871 9.33333ZM37.3537 9.33333H32.6604L34.2284 2.21867H36.0631L34.8577 7.73333H37.7057L37.3537 9.33333Z" fill="#00A650"/>
</g>
<defs>
<clipPath id="clip0_504_2056">
<rect width="37.3333" height="12" fill="white" transform="translate(0.524414)"/>
</clipPath>
</defs>
</svg>
