<svg width="24" height="25" viewBox="0 0 24 25" fill="none" xmlns="http://www.w3.org/2000/svg">
<g id="Group">
<path id="Path" d="M10.9996 18.6716H13.0004" stroke="#0E29D0" stroke-width="1.5" stroke-linecap="round" stroke-linejoin="round"/>
<path id="Path_2" d="M15.7206 16.5457V16.5457C16.0607 16.5454 16.3868 16.41 16.6272 16.1693C16.8675 15.9286 17.0024 15.6023 17.0021 15.2621V15.2621C17.0015 14.9015 16.8576 14.556 16.6019 14.3017L15.7496 13.4494V10.9183C15.7496 8.84716 14.0712 7.16785 12 7.16675V7.16675C9.92886 7.16785 8.25045 8.84716 8.25045 10.9183V13.4494L7.39809 14.3017C7.14245 14.556 6.99848 14.9015 6.99792 15.2621V15.2621V15.2621C6.99819 15.6023 7.13357 15.9284 7.37428 16.1687C7.61499 16.409 7.94131 16.5439 8.28146 16.5437H15.7186" stroke="#0E29D0" stroke-width="1.5" stroke-linecap="round" stroke-linejoin="round"/>
<rect id="Rectangle" x="2.99622" y="3.66528" width="18.0075" height="18.0075" rx="5" stroke="#1D1D1D" stroke-width="1.5" stroke-linecap="round" stroke-linejoin="round"/>
</g>
</svg>
