<svg width="24" height="25" viewBox="0 0 24 25" fill="none" xmlns="http://www.w3.org/2000/svg">
<g id="Group">
<path id="Path" fill-rule="evenodd" clip-rule="evenodd" d="M5.99747 21.6728H3.99663C3.4442 21.6726 2.99641 21.2248 2.99622 20.6724V14.6699C2.99641 14.1174 3.4442 13.6696 3.99663 13.6694H5.99747C6.5499 13.6696 6.99768 14.1174 6.99788 14.6699V20.6724C6.99768 21.2248 6.5499 21.6726 5.99747 21.6728V21.6728Z" stroke="#1D1D1D" stroke-width="1.5" stroke-linecap="round" stroke-linejoin="round"/>
<path id="Path_2" d="M13.0004 17.671H14.9612C15.3942 17.6713 15.8155 17.5308 16.1617 17.2709L18.5787 15.4581C19.1822 15.0059 20.0263 15.066 20.5596 15.5992V15.5992C20.844 15.8832 21.0038 16.2687 21.0038 16.6706C21.0038 17.0726 20.844 17.458 20.5596 17.7421L18.4857 19.8159C17.9269 20.3744 17.2155 20.7552 16.4409 20.9104L13.5096 21.4966C12.9285 21.6128 12.3288 21.5985 11.7539 21.4546L9.1028 20.7923C8.78586 20.7124 8.46025 20.6721 8.1334 20.6723H6.99792" stroke="#1D1D1D" stroke-width="1.5" stroke-linecap="round" stroke-linejoin="round"/>
<path id="Path_3" d="M13.0004 17.6711H14.486C14.888 17.6712 15.2736 17.5115 15.5579 17.2273C15.8421 16.943 16.0018 16.5575 16.0017 16.1555V15.8523C16.0018 15.1572 15.5287 14.5512 14.8542 14.3827L12.5612 13.8095C12.1886 13.7165 11.8059 13.6694 11.4218 13.6694V13.6694C10.4941 13.6691 9.58725 13.9438 8.81568 14.4588L6.99792 15.6703" stroke="#1D1D1D" stroke-width="1.5" stroke-linecap="round" stroke-linejoin="round"/>
<path id="Path_4" d="M19.2708 7.39905C20.2475 8.37576 20.2475 9.95933 19.2708 10.936C18.294 11.9128 16.7105 11.9128 15.7338 10.936C14.757 9.95933 14.757 8.37576 15.7338 7.39905C16.2028 6.93001 16.8389 6.6665 17.5023 6.6665C18.1656 6.6665 18.8017 6.93001 19.2708 7.39905" stroke="#0E29D0" stroke-width="1.5" stroke-linecap="round" stroke-linejoin="round"/>
<path id="Rectangle" fill-rule="evenodd" clip-rule="evenodd" d="M6.93135 6.71376C6.35283 6.13524 6.35283 5.19728 6.93135 4.61876L8.45147 3.09864C9.02999 2.52012 9.96795 2.52012 10.5465 3.09864L12.0666 4.61876C12.6451 5.19728 12.6451 6.13524 12.0666 6.71376L10.5465 8.23388C9.96795 8.8124 9.02999 8.8124 8.45147 8.23388L6.93135 6.71376Z" stroke="#0E29D0" stroke-width="1.5" stroke-linecap="round" stroke-linejoin="round"/>
</g>
</svg>
