<svg width="16" height="16" viewBox="0 0 16 16" fill="none" xmlns="http://www.w3.org/2000/svg">
<path d="M3 4.97696V3.72698C3 3.38181 3.27982 3.10199 3.62499 3.10199H12.3748C12.72 3.10199 12.9998 3.38181 12.9998 3.72698V4.97696" stroke="#797979" stroke-width="0.937485" stroke-linecap="round" stroke-linejoin="round"/>
<path fill-rule="evenodd" clip-rule="evenodd" d="M12.9998 4.97699H2.99999C2.65482 4.97699 2.375 5.25681 2.375 5.60198V12.4769C2.375 13.1672 2.93463 13.7268 3.62498 13.7268H12.3748C13.0652 13.7268 13.6248 13.1672 13.6248 12.4769V5.60198C13.6248 5.25681 13.345 4.97699 12.9998 4.97699Z" stroke="#797979" stroke-width="0.937485" stroke-linecap="round" stroke-linejoin="round"/>
<path d="M10.4999 7.47693C10.4999 8.85762 9.38065 9.97689 7.99996 9.97689C6.61927 9.97689 5.5 8.85762 5.5 7.47693" stroke="#797979" stroke-width="0.937485" stroke-linecap="round" stroke-linejoin="round"/>
</svg>
