<svg width="15" height="16" viewBox="0 0 15 16" fill="none" xmlns="http://www.w3.org/2000/svg">
<path fill-rule="evenodd" clip-rule="evenodd" d="M12.5 12.477H2.5C1.80937 12.477 1.25 11.9176 1.25 11.227V4.97699C1.25 4.28636 1.80937 3.72699 2.5 3.72699H12.5C13.1906 3.72699 13.75 4.28636 13.75 4.97699V11.227C13.75 11.9176 13.1906 12.477 12.5 12.477Z" stroke="#797979" stroke-width="0.964523" stroke-linecap="round" stroke-linejoin="round"/>
<path d="M8.60485 6.99726C9.21505 7.60745 9.21505 8.59677 8.60485 9.20696C7.99466 9.81716 7.00534 9.81716 6.39515 9.20696C5.78495 8.59677 5.78495 7.60745 6.39515 6.99726C7.00534 6.38706 7.99466 6.38706 8.60485 6.99726" stroke="#797979" stroke-width="0.964523" stroke-linecap="round" stroke-linejoin="round"/>
<path d="M3.75 6.53961V9.66461" stroke="#797979" stroke-width="0.964523" stroke-linecap="round" stroke-linejoin="round"/>
<path d="M11.25 6.53961V9.66461" stroke="#797979" stroke-width="0.964523" stroke-linecap="round" stroke-linejoin="round"/>
</svg>
