<svg width="24" height="25" viewBox="0 0 24 25" fill="none" xmlns="http://www.w3.org/2000/svg">
<g id="Support, Help, Question/Headphones, Customer, support">
<g id="Group">
<g id="Group_2">
<path id="Path" d="M13.875 20.6689H16C17.105 20.6689 18 19.7739 18 18.6689V17.6689" stroke="#1D1D1D" stroke-width="1.5" stroke-linecap="round" stroke-linejoin="round"/>
<path id="Path_2" fill-rule="evenodd" clip-rule="evenodd" d="M19 17.6689H18C17.448 17.6689 17 17.2209 17 16.6689V11.6689C17 11.1169 17.448 10.6689 18 10.6689H19C20.105 10.6689 21 11.5639 21 12.6689V15.6689C21 16.7739 20.105 17.6689 19 17.6689Z" stroke="#1D1D1D" stroke-width="1.5" stroke-linecap="round" stroke-linejoin="round"/>
<path id="Path_3" fill-rule="evenodd" clip-rule="evenodd" d="M6 17.6689H5C3.895 17.6689 3 16.7739 3 15.6689V12.6689C3 11.5639 3.895 10.6689 5 10.6689H6C6.552 10.6689 7 11.1169 7 11.6689V16.6689C7 17.2209 6.552 17.6689 6 17.6689Z" stroke="#1D1D1D" stroke-width="1.5" stroke-linecap="round" stroke-linejoin="round"/>
<path id="Path_4" d="M18.5 10.6689V10.1689C18.5 6.57895 15.59 3.66895 12 3.66895V3.66895C8.41 3.66895 5.5 6.57895 5.5 10.1689V10.6689" stroke="#1D1D1D" stroke-width="1.5" stroke-linecap="round" stroke-linejoin="round"/>
<path id="Path_5" fill-rule="evenodd" clip-rule="evenodd" d="M12.625 21.9189H11.375C10.685 21.9189 10.125 21.3589 10.125 20.6689C10.125 19.9789 10.685 19.4189 11.375 19.4189H12.625C13.315 19.4189 13.875 19.9789 13.875 20.6689C13.875 21.3589 13.315 21.9189 12.625 21.9189Z" fill="#0E29D0" stroke="#0E29D0" stroke-width="1.5" stroke-linecap="round" stroke-linejoin="round"/>
</g>
</g>
</g>
</svg>
