<svg width="24" height="24" viewBox="0 0 24 24" fill="none" xmlns="http://www.w3.org/2000/svg">
<path fill-rule="evenodd" clip-rule="evenodd" d="M17.0021 21.0039H6.9979C6.46721 21.004 5.9582 20.7932 5.58294 20.418C5.20768 20.0427 4.99692 19.5337 4.99707 19.003V12.0001C4.99692 11.4694 5.20768 10.9604 5.58294 10.5851C5.9582 10.2099 6.46721 9.99912 6.9979 9.99927H17.0021C17.5328 9.99912 18.0418 10.2099 18.417 10.5851C18.7923 10.9604 19.003 11.4694 19.0029 12.0001V19.003C19.003 19.5337 18.7923 20.0427 18.417 20.418C18.0418 20.7932 17.5328 21.004 17.0021 21.0039V21.0039Z" stroke="#0E29D0" stroke-width="1.5" stroke-linecap="round" stroke-linejoin="round"/>
<path d="M12.0366 15.465C12.0515 15.4798 12.0559 15.5021 12.0479 15.5215C12.0399 15.5409 12.0209 15.5535 12 15.5535C11.979 15.5535 11.9601 15.5409 11.952 15.5215C11.944 15.5021 11.9485 15.4798 11.9633 15.465V15.465C11.9835 15.4448 12.0163 15.4448 12.0366 15.465" stroke="#0E29D0" stroke-width="1.5" stroke-linecap="round" stroke-linejoin="round"/>
<path d="M15.4384 17.0022V14.001" stroke="#0E29D0" stroke-width="1.5" stroke-linecap="round" stroke-linejoin="round"/>
<path d="M7.99835 9.99925V6.998V6.998C7.99845 4.78799 9.79 2.99644 12 2.99634V2.99634C14.21 2.99644 16.0016 4.78799 16.0017 6.998V6.998V9.99925" stroke="#0E29D0" stroke-width="1.5" stroke-linecap="round" stroke-linejoin="round"/>
<path d="M8.59822 15.465C8.61305 15.4798 8.61749 15.5021 8.60946 15.5215C8.60144 15.5409 8.58253 15.5535 8.56155 15.5535C8.54057 15.5535 8.52166 15.5409 8.51363 15.5215C8.50561 15.5021 8.51005 15.4798 8.52488 15.465V15.465C8.54513 15.4448 8.57792 15.4448 8.59817 15.465" stroke="#323232" stroke-width="1.5" stroke-linecap="round" stroke-linejoin="round"/>
</svg>
