<svg width="24" height="25" viewBox="0 0 24 25" fill="none" xmlns="http://www.w3.org/2000/svg">
<path d="M9.70801 18.844V19.209C9.70801 20.474 10.734 21.5 12 21.5V21.5C13.266 21.5 14.292 20.474 14.292 19.208V18.843" stroke="#1D1D1D" stroke-width="1.5" stroke-linecap="round" stroke-linejoin="round"/>
<path d="M13.833 6.251V5.333C13.833 4.321 13.013 3.5 12 3.5V3.5C10.987 3.5 10.167 4.321 10.167 5.333V6.251" stroke="#1D1D1D" stroke-width="1.5" stroke-linecap="round" stroke-linejoin="round"/>
<path fill-rule="evenodd" clip-rule="evenodd" d="M6.563 10.688V10.688C6.563 8.18498 8.592 6.15698 11.094 6.15698H12.907C15.41 6.15698 17.438 8.18598 17.438 10.688V10.688V13.485C17.438 14.015 17.649 14.524 18.024 14.899L18.665 15.54C19.04 15.915 19.251 16.424 19.251 16.954V16.954C19.251 17.998 18.405 18.844 17.361 18.844H6.64C5.596 18.844 4.75 17.998 4.75 16.954V16.954C4.75 16.424 4.961 15.915 5.336 15.54L5.977 14.899C6.352 14.524 6.563 14.015 6.563 13.485V10.688Z" stroke="#1D1D1D" stroke-width="1.5" stroke-linecap="round" stroke-linejoin="round"/>
</svg>
