<svg width="24" height="25" viewBox="0 0 24 25" fill="none" xmlns="http://www.w3.org/2000/svg">
<g clip-path="url(#clip0_256_5199)">
<rect y="0.5" width="24" height="24" rx="12" fill="#0B0B11"/>
<path d="M9.44 15.6027C9.43047 16.3494 8.8172 16.9151 7.6 17.2827C9.06664 18.3494 10.5334 19.2027 12 19.2027C13.4666 19.2027 14.9334 18.3494 16.4 17.2827C15.1911 16.9147 14.5778 16.3654 14.56 15.6347C14.56 15.5045 14.5686 12.6431 14.5741 11.3947C15.7206 9.90856 15.2994 8.16624 14.9402 8.20968C14.4997 8.26336 10.6834 4.64192 9.95143 4.45624C9.21943 4.27056 7.36 4.87 7.03999 6.54C6.71999 8.21 6.58623 12.4194 7.8 14.1C8.14536 14.5782 8.69751 14.764 9.44 14.66C9.44104 15.0095 9.44 15.6027 9.44 15.6027Z" fill="url(#paint0_linear_256_5199)"/>
<path d="M9.44 14.66C11.2 14.46 12.32 13.7 12.32 13.7C12.32 13.7 11.36 15.3 9.44 15.62V14.66Z" fill="#DB6F3D"/>
<path d="M15.16 11.42C15.7112 10.0944 17.92 7.39463 16.016 5.71463C15.376 2.59463 11.84 2.93999 9.48001 3.65999C7.89385 4.14391 6.69601 5.09999 6.44001 4.37999C4.84001 5.71463 5.64129 7.01999 6.69601 7.39463C7.65329 7.73463 9.27201 8.07463 12.0245 7.75463C12.5162 7.69743 12.4132 9.20327 12.6759 9.36607C13.0701 9.61031 13.376 8.07463 14.4567 8.53575C15.5373 8.99687 14.896 11.135 13.736 11.135C13.336 11.135 13.136 12.2347 14.216 12.7547C15 13.14 14.8019 12.2814 15.16 11.42Z" fill="white"/>
<path d="M20.4 19.7246C21.1616 21.2732 21.6 24.8446 21.6 24.8446H2.39996C2.39996 24.8446 2.83852 21.2728 3.59996 19.7246C4.3614 18.1765 8.80796 16.7406 8.80796 16.7406C9.665 18.5 14.3686 18.5 15.1896 16.74C15.1896 16.74 19.6384 18.1761 20.4 19.7246Z" fill="url(#paint1_linear_256_5199)"/>
<mask id="mask0_256_5199" style="mask-type:alpha" maskUnits="userSpaceOnUse" x="2" y="16" width="20" height="9">
<path d="M20.4 19.7246C21.1616 21.2732 21.6 24.8446 21.6 24.8446H2.39996C2.39996 24.8446 2.83852 21.2728 3.59996 19.7246C4.3614 18.1765 8.80796 16.7406 8.80796 16.7406C9.665 18.5 14.3686 18.5 15.1896 16.74C15.1896 16.74 19.6384 18.1761 20.4 19.7246Z" fill="url(#paint2_linear_256_5199)"/>
</mask>
<g mask="url(#mask0_256_5199)">
<path d="M1.59991 23.22V22.58H22.3999V23.22H1.59991ZM1.59991 21.62V20.98H22.3999V21.62H1.59991ZM1.59991 20.02V19.38H22.3999V20.02H1.59991Z" fill="#6E5C5A"/>
</g>
</g>
<defs>
<linearGradient id="paint0_linear_256_5199" x1="11.6097" y1="4.42377" x2="11.6097" y2="19.2027" gradientUnits="userSpaceOnUse">
<stop stop-color="#E6864E"/>
<stop offset="1" stop-color="#EB965E"/>
</linearGradient>
<linearGradient id="paint1_linear_256_5199" x1="12" y1="16.74" x2="12" y2="24.8446" gradientUnits="userSpaceOnUse">
<stop stop-color="#1D0024"/>
<stop offset="1" stop-color="#100014"/>
</linearGradient>
<linearGradient id="paint2_linear_256_5199" x1="12" y1="16.74" x2="12" y2="24.8446" gradientUnits="userSpaceOnUse">
<stop stop-color="#1D0024"/>
<stop offset="1" stop-color="#100014"/>
</linearGradient>
<clipPath id="clip0_256_5199">
<rect y="0.5" width="24" height="24" rx="12" fill="white"/>
</clipPath>
</defs>
</svg>
